<svg xmlns="http://www.w3.org/2000/svg" xmlns:svg="http://www.w3.org/2000/svg" id="svg2" width="620.422" height="176.773" preserveAspectRatio="xMidYMid" version="1.2" viewBox="0 0 16415.333 4677.111" xml:space="preserve" style="fill-rule:evenodd;stroke-width:28.22200012;stroke-linejoin:round"><metadata id="metadata652"/><g id="g186" class="com.sun.star.drawing.CustomShape" transform="translate(-3285.889,-3185.889)"><g id="id6"><rect id="rect189" width="1303" height="1203" x="3299" y="3199" class="BoundingBox" style="fill:none;stroke:none"/><path id="path191" d="m 3950,4400 -650,0 0,-1200 1300,0 0,1200 -650,0 z" style="fill:#00f;stroke:none"/><path id="path193" d="m 3950,4400 -650,0 0,-1200 1300,0 0,1200 -650,0 z" style="fill:none;stroke:#3465a4"/><text id="text195" class="TextShape"><tspan id="tspan197" class="TextParagraph" font-size="635" font-weight="400" style="font-weight:400;font-size:635px;font-family:'Liberation Sans',sans-serif"><tspan id="tspan199" x="3739" y="4021" class="TextPosition"><tspan id="tspan201" style="fill:#fff;stroke:none">B</tspan></tspan></tspan></text></g></g><g id="g203" class="com.sun.star.drawing.CustomShape" transform="translate(-3285.889,-3185.889)"><g id="id7"><rect id="rect206" width="1303" height="1203" x="4599" y="3199" class="BoundingBox" style="fill:none;stroke:none"/><path id="path208" d="m 5250,4400 -650,0 0,-1200 1300,0 0,1200 -650,0 z" style="fill:#0c0;stroke:none"/><path id="path210" d="m 5250,4400 -650,0 0,-1200 1300,0 0,1200 -650,0 z" style="fill:none;stroke:#3465a4"/><text id="text212" class="TextShape"><tspan id="tspan214" class="TextParagraph" font-size="635" font-weight="400" style="font-weight:400;font-size:635px;font-family:'Liberation Sans',sans-serif"><tspan id="tspan216" x="5003" y="4021" class="TextPosition"><tspan id="tspan218" style="fill:#fff;stroke:none">G</tspan></tspan></tspan></text></g></g><g id="g220" class="com.sun.star.drawing.CustomShape" transform="translate(-3285.889,-3185.889)"><g id="id8"><rect id="rect223" width="1303" height="1203" x="3299" y="4399" class="BoundingBox" style="fill:none;stroke:none"/><path id="path225" d="m 3950,5600 -650,0 0,-1200 1300,0 0,1200 -650,0 z" style="fill:#0c0;stroke:none"/><path id="path227" d="m 3950,5600 -650,0 0,-1200 1300,0 0,1200 -650,0 z" style="fill:none;stroke:#3465a4"/><text id="text229" class="TextShape"><tspan id="tspan231" class="TextParagraph" font-size="635" font-weight="400" style="font-weight:400;font-size:635px;font-family:'Liberation Sans',sans-serif"><tspan id="tspan233" x="3703" y="5221" class="TextPosition"><tspan id="tspan235" style="fill:#fff;stroke:none">G</tspan></tspan></tspan></text></g></g><g id="g237" class="com.sun.star.drawing.CustomShape" transform="translate(-3285.889,-3185.889)"><g id="id9"><rect id="rect240" width="1303" height="1203" x="4599" y="4399" class="BoundingBox" style="fill:none;stroke:none"/><path id="path242" d="m 5250,5600 -650,0 0,-1200 1300,0 0,1200 -650,0 z" style="fill:red;stroke:none"/><path id="path244" d="m 5250,5600 -650,0 0,-1200 1300,0 0,1200 -650,0 z" style="fill:none;stroke:#3465a4"/><text id="text246" class="TextShape"><tspan id="tspan248" class="TextParagraph" font-size="635" font-weight="400" style="font-weight:400;font-size:635px;font-family:'Liberation Sans',sans-serif"><tspan id="tspan250" x="5022" y="5221" class="TextPosition"><tspan id="tspan252" style="fill:#fff;stroke:none">R</tspan></tspan></tspan></text></g></g><g id="g254" class="com.sun.star.drawing.CustomShape" transform="translate(-3285.889,-3185.889)"><g id="id10"><rect id="rect257" width="1003" height="1003" x="5999" y="3299" class="BoundingBox" style="fill:none;stroke:none"/><path id="path259" d="m 6500,4300 -500,0 0,-1000 1000,0 0,1000 -500,0 z" style="fill:none;stroke:#00f"/></g></g><g id="g261" class="com.sun.star.drawing.CustomShape" transform="translate(-3285.889,-3185.889)"><g id="id11"><rect id="rect264" width="1003" height="1003" x="4699" y="5699" class="BoundingBox" style="fill:none;stroke:none"/><path id="path266" d="m 5200,6700 -500,0 0,-1000 1000,0 0,1000 -500,0 z" style="fill:none;stroke:#0c0"/></g></g><g id="g268" class="com.sun.star.drawing.TextShape" transform="translate(-3285.889,-3185.889)"><g id="id12"><rect id="rect271" width="2374" height="963" x="4000" y="6900" class="BoundingBox" style="fill:none;stroke:none"/><text id="text273" class="TextShape"><tspan id="tspan275" class="TextParagraph" font-size="635" font-weight="400" style="font-weight:400;font-size:635px;font-family:'Liberation Sans',sans-serif"><tspan id="tspan277" x="4250" y="7601" class="TextPosition"><tspan id="tspan279" style="fill:#000;stroke:none">BGGR</tspan></tspan></tspan></text></g></g><g id="g281" class="com.sun.star.drawing.CustomShape" transform="translate(-3285.889,-3185.889)"><g id="id13"><rect id="rect284" width="1303" height="1203" x="8799" y="3199" class="BoundingBox" style="fill:none;stroke:none"/><path id="path286" d="m 9450,4400 -650,0 0,-1200 1300,0 0,1200 -650,0 z" style="fill:#00f;stroke:none"/><path id="path288" d="m 9450,4400 -650,0 0,-1200 1300,0 0,1200 -650,0 z" style="fill:none;stroke:#3465a4"/><text id="text290" class="TextShape"><tspan id="tspan292" class="TextParagraph" font-size="635" font-weight="400" style="font-weight:400;font-size:635px;font-family:'Liberation Sans',sans-serif"><tspan id="tspan294" x="9239" y="4021" class="TextPosition"><tspan id="tspan296" style="fill:#fff;stroke:none">B</tspan></tspan></tspan></text></g></g><g id="g298" class="com.sun.star.drawing.CustomShape" transform="translate(-3285.889,-3185.889)"><g id="id14"><rect id="rect301" width="1303" height="1203" x="7499" y="3199" class="BoundingBox" style="fill:none;stroke:none"/><path id="path303" d="m 8150,4400 -650,0 0,-1200 1300,0 0,1200 -650,0 z" style="fill:#0c0;stroke:none"/><path id="path305" d="m 8150,4400 -650,0 0,-1200 1300,0 0,1200 -650,0 z" style="fill:none;stroke:#3465a4"/><text id="text307" class="TextShape"><tspan id="tspan309" class="TextParagraph" font-size="635" font-weight="400" style="font-weight:400;font-size:635px;font-family:'Liberation Sans',sans-serif"><tspan id="tspan311" x="7903" y="4021" class="TextPosition"><tspan id="tspan313" style="fill:#fff;stroke:none">G</tspan></tspan></tspan></text></g></g><g id="g315" class="com.sun.star.drawing.CustomShape" transform="translate(-3285.889,-3185.889)"><g id="id15"><rect id="rect318" width="1303" height="1203" x="8799" y="4399" class="BoundingBox" style="fill:none;stroke:none"/><path id="path320" d="m 9450,5600 -650,0 0,-1200 1300,0 0,1200 -650,0 z" style="fill:#0c0;stroke:none"/><path id="path322" d="m 9450,5600 -650,0 0,-1200 1300,0 0,1200 -650,0 z" style="fill:none;stroke:#3465a4"/><text id="text324" class="TextShape"><tspan id="tspan326" class="TextParagraph" font-size="635" font-weight="400" style="font-weight:400;font-size:635px;font-family:'Liberation Sans',sans-serif"><tspan id="tspan328" x="9203" y="5221" class="TextPosition"><tspan id="tspan330" style="fill:#fff;stroke:none">G</tspan></tspan></tspan></text></g></g><g id="g332" class="com.sun.star.drawing.CustomShape" transform="translate(-3285.889,-3185.889)"><g id="id16"><rect id="rect335" width="1303" height="1203" x="7499" y="4399" class="BoundingBox" style="fill:none;stroke:none"/><path id="path337" d="m 8150,5600 -650,0 0,-1200 1300,0 0,1200 -650,0 z" style="fill:red;stroke:none"/><path id="path339" d="m 8150,5600 -650,0 0,-1200 1300,0 0,1200 -650,0 z" style="fill:none;stroke:#3465a4"/><text id="text341" class="TextShape"><tspan id="tspan343" class="TextParagraph" font-size="635" font-weight="400" style="font-weight:400;font-size:635px;font-family:'Liberation Sans',sans-serif"><tspan id="tspan345" x="7922" y="5221" class="TextPosition"><tspan id="tspan347" style="fill:#fff;stroke:none">R</tspan></tspan></tspan></text></g></g><g id="g349" class="com.sun.star.drawing.TextShape" transform="translate(-3285.889,-3185.889)"><g id="id17"><rect id="rect352" width="2374" height="963" x="8200" y="6900" class="BoundingBox" style="fill:none;stroke:none"/><text id="text354" class="TextShape"><tspan id="tspan356" class="TextParagraph" font-size="635" font-weight="400" style="font-weight:400;font-size:635px;font-family:'Liberation Sans',sans-serif"><tspan id="tspan358" x="8450" y="7601" class="TextPosition"><tspan id="tspan360" style="fill:#000;stroke:none">GBRG</tspan></tspan></tspan></text></g></g><g id="g362" class="com.sun.star.drawing.CustomShape" transform="translate(-3285.889,-3185.889)"><g id="id18"><rect id="rect365" width="1303" height="1203" x="17299" y="4399" class="BoundingBox" style="fill:none;stroke:none"/><path id="path367" d="m 17950,5600 -650,0 0,-1200 1300,0 0,1200 -650,0 z" style="fill:#00f;stroke:none"/><path id="path369" d="m 17950,5600 -650,0 0,-1200 1300,0 0,1200 -650,0 z" style="fill:none;stroke:#3465a4"/><text id="text371" class="TextShape"><tspan id="tspan373" class="TextParagraph" font-size="635" font-weight="400" style="font-weight:400;font-size:635px;font-family:'Liberation Sans',sans-serif"><tspan id="tspan375" x="17739" y="5221" class="TextPosition"><tspan id="tspan377" style="fill:#fff;stroke:none">B</tspan></tspan></tspan></text></g></g><g id="g379" class="com.sun.star.drawing.CustomShape" transform="translate(-3285.889,-3185.889)"><g id="id19"><rect id="rect382" width="1303" height="1203" x="17299" y="3199" class="BoundingBox" style="fill:none;stroke:none"/><path id="path384" d="m 17950,4400 -650,0 0,-1200 1300,0 0,1200 -650,0 z" style="fill:#0c0;stroke:none"/><path id="path386" d="m 17950,4400 -650,0 0,-1200 1300,0 0,1200 -650,0 z" style="fill:none;stroke:#3465a4"/><text id="text388" class="TextShape"><tspan id="tspan390" class="TextParagraph" font-size="635" font-weight="400" style="font-weight:400;font-size:635px;font-family:'Liberation Sans',sans-serif"><tspan id="tspan392" x="17703" y="4021" class="TextPosition"><tspan id="tspan394" style="fill:#fff;stroke:none">G</tspan></tspan></tspan></text></g></g><g id="g396" class="com.sun.star.drawing.CustomShape" transform="translate(-3285.889,-3185.889)"><g id="id20"><rect id="rect399" width="1303" height="1203" x="15999" y="4399" class="BoundingBox" style="fill:none;stroke:none"/><path id="path401" d="m 16650,5600 -650,0 0,-1200 1300,0 0,1200 -650,0 z" style="fill:#0c0;stroke:none"/><path id="path403" d="m 16650,5600 -650,0 0,-1200 1300,0 0,1200 -650,0 z" style="fill:none;stroke:#3465a4"/><text id="text405" class="TextShape"><tspan id="tspan407" class="TextParagraph" font-size="635" font-weight="400" style="font-weight:400;font-size:635px;font-family:'Liberation Sans',sans-serif"><tspan id="tspan409" x="16403" y="5221" class="TextPosition"><tspan id="tspan411" style="fill:#fff;stroke:none">G</tspan></tspan></tspan></text></g></g><g id="g413" class="com.sun.star.drawing.CustomShape" transform="translate(-3285.889,-3185.889)"><g id="id21"><rect id="rect416" width="1303" height="1203" x="15999" y="3199" class="BoundingBox" style="fill:none;stroke:none"/><path id="path418" d="m 16650,4400 -650,0 0,-1200 1300,0 0,1200 -650,0 z" style="fill:red;stroke:none"/><path id="path420" d="m 16650,4400 -650,0 0,-1200 1300,0 0,1200 -650,0 z" style="fill:none;stroke:#3465a4"/><text id="text422" class="TextShape"><tspan id="tspan424" class="TextParagraph" font-size="635" font-weight="400" style="font-weight:400;font-size:635px;font-family:'Liberation Sans',sans-serif"><tspan id="tspan426" x="16422" y="4021" class="TextPosition"><tspan id="tspan428" style="fill:#fff;stroke:none">R</tspan></tspan></tspan></text></g></g><g id="g430" class="com.sun.star.drawing.TextShape" transform="translate(-3285.889,-3185.889)"><g id="id22"><rect id="rect433" width="2374" height="963" x="16700" y="6900" class="BoundingBox" style="fill:none;stroke:none"/><text id="text435" class="TextShape"><tspan id="tspan437" class="TextParagraph" font-size="635" font-weight="400" style="font-weight:400;font-size:635px;font-family:'Liberation Sans',sans-serif"><tspan id="tspan439" x="16950" y="7601" class="TextPosition"><tspan id="tspan441" style="fill:#000;stroke:none">RGGB</tspan></tspan></tspan></text></g></g><g id="g443" class="com.sun.star.drawing.CustomShape" transform="translate(-3285.889,-3185.889)"><g id="id23"><rect id="rect446" width="1303" height="1203" x="11699" y="4399" class="BoundingBox" style="fill:none;stroke:none"/><path id="path448" d="m 12350,5600 -650,0 0,-1200 1300,0 0,1200 -650,0 z" style="fill:#00f;stroke:none"/><path id="path450" d="m 12350,5600 -650,0 0,-1200 1300,0 0,1200 -650,0 z" style="fill:none;stroke:#3465a4"/><text id="text452" class="TextShape"><tspan id="tspan454" class="TextParagraph" font-size="635" font-weight="400" style="font-weight:400;font-size:635px;font-family:'Liberation Sans',sans-serif"><tspan id="tspan456" x="12139" y="5221" class="TextPosition"><tspan id="tspan458" style="fill:#fff;stroke:none">B</tspan></tspan></tspan></text></g></g><g id="g460" class="com.sun.star.drawing.CustomShape" transform="translate(-3285.889,-3185.889)"><g id="id24"><rect id="rect463" width="1303" height="1203" x="11699" y="3199" class="BoundingBox" style="fill:none;stroke:none"/><path id="path465" d="m 12350,4400 -650,0 0,-1200 1300,0 0,1200 -650,0 z" style="fill:#0c0;stroke:none"/><path id="path467" d="m 12350,4400 -650,0 0,-1200 1300,0 0,1200 -650,0 z" style="fill:none;stroke:#3465a4"/><text id="text469" class="TextShape"><tspan id="tspan471" class="TextParagraph" font-size="635" font-weight="400" style="font-weight:400;font-size:635px;font-family:'Liberation Sans',sans-serif"><tspan id="tspan473" x="12103" y="4021" class="TextPosition"><tspan id="tspan475" style="fill:#fff;stroke:none">G</tspan></tspan></tspan></text></g></g><g id="g477" class="com.sun.star.drawing.CustomShape" transform="translate(-3285.889,-3185.889)"><g id="id25"><rect id="rect480" width="1303" height="1203" x="12999" y="4399" class="BoundingBox" style="fill:none;stroke:none"/><path id="path482" d="m 13650,5600 -650,0 0,-1200 1300,0 0,1200 -650,0 z" style="fill:#0c0;stroke:none"/><path id="path484" d="m 13650,5600 -650,0 0,-1200 1300,0 0,1200 -650,0 z" style="fill:none;stroke:#3465a4"/><text id="text486" class="TextShape"><tspan id="tspan488" class="TextParagraph" font-size="635" font-weight="400" style="font-weight:400;font-size:635px;font-family:'Liberation Sans',sans-serif"><tspan id="tspan490" x="13403" y="5221" class="TextPosition"><tspan id="tspan492" style="fill:#fff;stroke:none">G</tspan></tspan></tspan></text></g></g><g id="g494" class="com.sun.star.drawing.CustomShape" transform="translate(-3285.889,-3185.889)"><g id="id26"><rect id="rect497" width="1303" height="1203" x="12999" y="3199" class="BoundingBox" style="fill:none;stroke:none"/><path id="path499" d="m 13650,4400 -650,0 0,-1200 1300,0 0,1200 -650,0 z" style="fill:red;stroke:none"/><path id="path501" d="m 13650,4400 -650,0 0,-1200 1300,0 0,1200 -650,0 z" style="fill:none;stroke:#3465a4"/><text id="text503" class="TextShape"><tspan id="tspan505" class="TextParagraph" font-size="635" font-weight="400" style="font-weight:400;font-size:635px;font-family:'Liberation Sans',sans-serif"><tspan id="tspan507" x="13422" y="4021" class="TextPosition"><tspan id="tspan509" style="fill:#fff;stroke:none">R</tspan></tspan></tspan></text></g></g><g id="g511" class="com.sun.star.drawing.TextShape" transform="translate(-3285.889,-3185.889)"><g id="id27"><rect id="rect514" width="2374" height="963" x="12400" y="6900" class="BoundingBox" style="fill:none;stroke:none"/><text id="text516" class="TextShape"><tspan id="tspan518" class="TextParagraph" font-size="635" font-weight="400" style="font-weight:400;font-size:635px;font-family:'Liberation Sans',sans-serif"><tspan id="tspan520" x="12650" y="7601" class="TextPosition"><tspan id="tspan522" style="fill:#000;stroke:none">GRBG</tspan></tspan></tspan></text></g></g><g id="g524" class="com.sun.star.drawing.CustomShape" transform="translate(-3285.889,-3185.889)"><g id="id28"><rect id="rect527" width="1003" height="1003" x="5999" y="5699" class="BoundingBox" style="fill:none;stroke:none"/><path id="path529" d="m 6500,6700 -500,0 0,-1000 1000,0 0,1000 -500,0 z" style="fill:none;stroke:#00f"/></g></g><g id="g531" class="com.sun.star.drawing.CustomShape" transform="translate(-3285.889,-3185.889)"><g id="id29"><rect id="rect534" width="1003" height="1003" x="3399" y="5699" class="BoundingBox" style="fill:none;stroke:none"/><path id="path536" d="m 3900,6700 -500,0 0,-1000 1000,0 0,1000 -500,0 z" style="fill:none;stroke:#00f"/></g></g><g id="g538" class="com.sun.star.drawing.CustomShape" transform="translate(-3285.889,-3185.889)"><g id="id30"><rect id="rect541" width="1003" height="1003" x="5999" y="4499" class="BoundingBox" style="fill:none;stroke:none"/><path id="path543" d="m 6500,5500 -500,0 0,-1000 1000,0 0,1000 -500,0 z" style="fill:none;stroke:#0c0"/></g></g><g id="g545" class="com.sun.star.drawing.CustomShape" transform="translate(-3285.889,-3185.889)"><g id="id31"><rect id="rect548" width="1003" height="1003" x="7599" y="5799" class="BoundingBox" style="fill:none;stroke:none"/><path id="path550" d="m 8100,6800 -500,0 0,-1000 1000,0 0,1000 -500,0 z" style="fill:none;stroke:#0c0"/></g></g><g id="g552" class="com.sun.star.drawing.CustomShape" transform="translate(-3285.889,-3185.889)"><g id="id32"><rect id="rect555" width="1003" height="1003" x="10199" y="5799" class="BoundingBox" style="fill:none;stroke:none"/><path id="path557" d="m 10700,6800 -500,0 0,-1000 1000,0 0,1000 -500,0 z" style="fill:none;stroke:#0c0"/></g></g><g id="g559" class="com.sun.star.drawing.CustomShape" transform="translate(-3285.889,-3185.889)"><g id="id33"><rect id="rect562" width="1003" height="1003" x="8899" y="5799" class="BoundingBox" style="fill:none;stroke:none"/><path id="path564" d="m 9400,6800 -500,0 0,-1000 1000,0 0,1000 -500,0 z" style="fill:none;stroke:#00f"/></g></g><g id="g566" class="com.sun.star.drawing.CustomShape" transform="translate(-3285.889,-3185.889)"><g id="id34"><rect id="rect569" width="1003" height="1003" x="10199" y="4499" class="BoundingBox" style="fill:none;stroke:none"/><path id="path571" d="m 10700,5500 -500,0 0,-1000 1000,0 0,1000 -500,0 z" style="fill:none;stroke:red"/></g></g><g id="g573" class="com.sun.star.drawing.CustomShape" transform="translate(-3285.889,-3185.889)"><g id="id35"><rect id="rect576" width="1003" height="1003" x="10199" y="3299" class="BoundingBox" style="fill:none;stroke:none"/><path id="path578" d="m 10700,4300 -500,0 0,-1000 1000,0 0,1000 -500,0 z" style="fill:none;stroke:#0c0"/></g></g><g id="g580" class="com.sun.star.drawing.CustomShape" transform="translate(-3285.889,-3185.889)"><g id="id36"><rect id="rect583" width="1003" height="1003" x="14399" y="3299" class="BoundingBox" style="fill:none;stroke:none"/><path id="path585" d="m 14900,4300 -500,0 0,-1000 1000,0 0,1000 -500,0 z" style="fill:none;stroke:#0c0"/></g></g><g id="g587" class="com.sun.star.drawing.CustomShape" transform="translate(-3285.889,-3185.889)"><g id="id37"><rect id="rect590" width="1003" height="1003" x="14399" y="5799" class="BoundingBox" style="fill:none;stroke:none"/><path id="path592" d="m 14900,6800 -500,0 0,-1000 1000,0 0,1000 -500,0 z" style="fill:none;stroke:#0c0"/></g></g><g id="g594" class="com.sun.star.drawing.CustomShape" transform="translate(-3285.889,-3185.889)"><g id="id38"><rect id="rect597" width="1003" height="1003" x="11799" y="5799" class="BoundingBox" style="fill:none;stroke:none"/><path id="path599" d="m 12300,6800 -500,0 0,-1000 1000,0 0,1000 -500,0 z" style="fill:none;stroke:#0c0"/></g></g><g id="g601" class="com.sun.star.drawing.CustomShape" transform="translate(-3285.889,-3185.889)"><g id="id39"><rect id="rect604" width="1003" height="1003" x="14399" y="4499" class="BoundingBox" style="fill:none;stroke:none"/><path id="path606" d="m 14900,5500 -500,0 0,-1000 1000,0 0,1000 -500,0 z" style="fill:none;stroke:#00f"/></g></g><g id="g608" class="com.sun.star.drawing.CustomShape" transform="translate(-3285.889,-3185.889)"><g id="id40"><rect id="rect611" width="1003" height="1003" x="13099" y="5799" class="BoundingBox" style="fill:none;stroke:none"/><path id="path613" d="m 13600,6800 -500,0 0,-1000 1000,0 0,1000 -500,0 z" style="fill:none;stroke:red"/></g></g><g id="g615" class="com.sun.star.drawing.CustomShape" transform="translate(-3285.889,-3185.889)"><g id="id41"><rect id="rect618" width="1003" height="1003" x="16099" y="5799" class="BoundingBox" style="fill:none;stroke:none"/><path id="path620" d="m 16600,6800 -500,0 0,-1000 1000,0 0,1000 -500,0 z" style="fill:none;stroke:red"/></g></g><g id="g622" class="com.sun.star.drawing.CustomShape" transform="translate(-3398.7778,-3185.889)"><g id="id42"><rect id="rect625" width="1003" height="1003" x="18799" y="5799" class="BoundingBox" style="fill:none;stroke:none"/><path id="path627" d="m 19300,6800 -500,0 0,-1000 1000,0 0,1000 -500,0 z" style="fill:none;stroke:red"/></g></g><g id="g629" class="com.sun.star.drawing.CustomShape" transform="translate(-3398.7778,-3185.889)"><g id="id43"><rect id="rect632" width="1003" height="1003" x="18799" y="3299" class="BoundingBox" style="fill:none;stroke:none"/><path id="path634" d="m 19300,4300 -500,0 0,-1000 1000,0 0,1000 -500,0 z" style="fill:none;stroke:red"/></g></g><g id="g636" class="com.sun.star.drawing.CustomShape" transform="translate(-3285.889,-3185.889)"><g id="id44"><rect id="rect639" width="1003" height="1003" x="17399" y="5799" class="BoundingBox" style="fill:none;stroke:none"/><path id="path641" d="m 17900,6800 -500,0 0,-1000 1000,0 0,1000 -500,0 z" style="fill:none;stroke:#0c0"/></g></g><g id="g643" class="com.sun.star.drawing.CustomShape" transform="translate(-3398.7778,-3185.889)"><g id="id45"><rect id="rect646" width="1003" height="1003" x="18799" y="4499" class="BoundingBox" style="fill:none;stroke:none"/><path id="path648" d="m 19300,5500 -500,0 0,-1000 1000,0 0,1000 -500,0 z" style="fill:none;stroke:#0c0"/></g></g></svg>