<svg xmlns="http://www.w3.org/2000/svg" xmlns:svg="http://www.w3.org/2000/svg" id="svg2" width="941.14" height="540.51" preserveAspectRatio="xMidYMid" version="1.2" viewBox="0 0 24900.998 14300.999" xml:space="preserve" style="fill-rule:evenodd;stroke-width:28.22200012;stroke-linejoin:round"><metadata id="metadata325"/><defs id="defs4" class="ClipPathGroup"><marker style="overflow:visible" id="marker6261" orient="auto" refX="0" refY="0"><path style="fill:red;fill-opacity:1;fill-rule:evenodd;stroke:red;stroke-width:1pt;stroke-opacity:1" id="path6263" d="M 0,0 5,-5 -12.5,0 5,5 0,0 Z" transform="matrix(-0.4,0,0,-0.4,-4,0)"/></marker><marker id="marker6125" orient="auto" refX="0" refY="0" style="overflow:visible"><path id="path6127" d="M 0,0 5,-5 -12.5,0 5,5 0,0 Z" transform="matrix(-0.4,0,0,-0.4,-4,0)" style="fill:red;fill-opacity:1;fill-rule:evenodd;stroke:red;stroke-width:1pt;stroke-opacity:1"/></marker><marker style="overflow:visible" id="marker6001" orient="auto" refX="0" refY="0"><path style="fill:red;fill-opacity:1;fill-rule:evenodd;stroke:red;stroke-width:1pt;stroke-opacity:1" id="path6003" d="M 0,0 5,-5 -12.5,0 5,5 0,0 Z" transform="matrix(-0.4,0,0,-0.4,-4,0)"/></marker><marker id="marker5693" orient="auto" refX="0" refY="0" style="overflow:visible"><path id="path5695" d="M 0,0 5,-5 -12.5,0 5,5 0,0 Z" transform="matrix(-0.4,0,0,-0.4,-4,0)" style="fill:red;fill-opacity:1;fill-rule:evenodd;stroke:red;stroke-width:1pt;stroke-opacity:1"/></marker><marker style="overflow:visible" id="marker5575" orient="auto" refX="0" refY="0"><path style="fill:navy;fill-opacity:1;fill-rule:evenodd;stroke:navy;stroke-width:1pt;stroke-opacity:1" id="path5577" d="M 0,0 5,-5 -12.5,0 5,5 0,0 Z" transform="matrix(-0.4,0,0,-0.4,-4,0)"/></marker><marker id="marker5469" orient="auto" refX="0" refY="0" style="overflow:visible"><path id="path5471" d="M 0,0 5,-5 -12.5,0 5,5 0,0 Z" transform="matrix(-0.4,0,0,-0.4,-4,0)" style="fill:navy;fill-opacity:1;fill-rule:evenodd;stroke:navy;stroke-width:1pt;stroke-opacity:1"/></marker><marker id="marker5259" orient="auto" refX="0" refY="0" style="overflow:visible"><path id="path5261" d="M 0,0 5,-5 -12.5,0 5,5 0,0 Z" transform="matrix(-0.4,0,0,-0.4,-4,0)" style="fill:navy;fill-opacity:1;fill-rule:evenodd;stroke:navy;stroke-width:1pt;stroke-opacity:1"/></marker><marker id="Arrow2Mend" orient="auto" refX="0" refY="0" style="overflow:visible"><path id="path4241" d="M 8.7185878,4.0337352 -2.2072895,0.01601326 8.7185884,-4.0017078 c -1.7454984,2.3720609 -1.7354408,5.6174519 -6e-7,8.035443 z" transform="scale(-0.6,-0.6)" style="fill:navy;fill-opacity:1;fill-rule:evenodd;stroke:navy;stroke-width:.625;stroke-linejoin:round;stroke-opacity:1"/></marker></defs><g id="g204" class="com.sun.star.drawing.CustomShape" transform="translate(-1350,-3250)"><g id="id6"><rect id="rect207" width="24901" height="14301" x="1350" y="3250" class="BoundingBox" style="fill:none;stroke:none"/><path id="path209" d="m 13800,17500 -12400,0 0,-14200 24800,0 0,14200 -12400,0 z" style="fill:#fff;stroke:none"/><path id="path211" d="m 13800,17500 -12400,0 0,-14200 24800,0 0,14200 -12400,0 z" style="fill:none;stroke:red;stroke-width:100;stroke-linejoin:round"/><text id="text213" class="TextShape"><tspan id="tspan215" class="TextParagraph" font-size="846" font-weight="400" style="font-weight:400;font-size:846px;font-family:'Liberation Sans',sans-serif"><tspan id="tspan217" x="1652" y="17093" class="TextPosition"><tspan id="tspan221" style="fill:red;stroke:none">V4L2_SEL_FLAG_GE</tspan></tspan></tspan></text></g></g><rect id="rect226" width="18101" height="10101" x="3000" y="2200" class="BoundingBox" style="fill:none;stroke:none"/><path id="path228" d="m 12050,12250 -9000,0 0,-10000 18000,0 0,10000 -9000,0 z" style="fill:#fff;stroke:none"/><path id="path230" d="m 12050,12250 -9000,0 0,-10000 18000,0 0,10000 -9000,0 z" style="fill:none;stroke:#000;stroke-width:100;stroke-linejoin:round"/><text id="text232" x="-1350" y="-3250" class="TextShape"><tspan id="tspan234" class="TextParagraph" font-size="987" font-weight="400" style="font-weight:400;font-size:987px;font-family:'Liberation Sans',sans-serif"><tspan id="tspan236" x="3227" y="11503" class="TextPosition"><tspan id="tspan240" style="fill:#000;stroke:none">ORIGINAL</tspan></tspan></tspan></text><g id="g242" class="com.sun.star.drawing.CustomShape" transform="translate(-1350,-3250)"><g id="id8"><rect id="rect245" width="7901" height="5501" x="7050" y="7950" class="BoundingBox" style="fill:none;stroke:none"/><path id="path247" d="m 11000,13400 -3900,0 0,-5400 7800,0 0,5400 -3900,0 z" style="fill:#fff;stroke:none"/><path id="path249" d="m 11000,13400 -3900,0 0,-5400 7800,0 0,5400 -3900,0 z" style="fill:none;stroke:#3465a4;stroke-width:100;stroke-linejoin:round"/><text id="text251" class="TextShape"><tspan id="tspan253" class="TextParagraph" font-size="776" font-weight="400" style="font-weight:400;font-size:776px;font-family:'Liberation Sans',sans-serif"><tspan id="tspan255" x="7228" y="10969" class="TextPosition"><tspan id="tspan257" style="fill:navy;stroke:none">V4L2_SEL_FLAG_LE</tspan></tspan></tspan></text></g></g><rect id="rect262" width="7101" height="101" x="13700" y="7100" class="BoundingBox" style="fill:none;stroke:none"/><path id="path264" d="m 20750,7150 -7000,0" style="fill:none;stroke:navy;stroke-width:99.99134064;stroke-linejoin:round;stroke-miterlimit:4;stroke-dasharray:none;marker-end:url(#Arrow2Mend)"/><rect id="rect269" width="2101" height="101" x="3400" y="7100" class="BoundingBox" style="fill:none;stroke:none"/><path id="path271" d="m 3450,7150 2000,0" style="fill:none;stroke:navy;stroke-width:100;stroke-linejoin:round;marker-end:url(#marker5575)"/><rect id="rect276" width="101" height="1501" x="9800" y="2900" class="BoundingBox" style="fill:none;stroke:none"/><path id="path278" d="m 9850,2950 0,1400" style="fill:none;stroke:navy;stroke-width:100;stroke-linejoin:round;marker-end:url(#marker5259)"/><rect id="rect283" width="101" height="1301" x="9600" y="10600" class="BoundingBox" style="fill:none;stroke:none"/><path id="path285" d="m 9650,11850 0,-1200" style="fill:none;stroke:navy;stroke-width:100;stroke-linejoin:round;marker-end:url(#marker5469)"/><rect id="rect290" width="2051" height="601" x="450" y="6850" class="BoundingBox" style="fill:none;stroke:none"/><path id="path292" d="m 2450,7150 -2000.8696,0" style="fill:none;stroke:red;stroke-width:132.48202515;stroke-linejoin:round;marker-end:url(#marker6125)"/><rect id="rect299" width="2651" height="601" x="21600" y="6750" class="BoundingBox" style="fill:none;stroke:none"/><path id="path301" d="m 21650,7050 2522.609,0" style="fill:none;stroke:red;stroke-width:120.40660858;stroke-linejoin:round;marker-end:url(#marker6001)"/><rect id="rect308" width="601" height="1451" x="9550" y="550" class="BoundingBox" style="fill:none;stroke:none"/><path id="path310" d="m 9836.957,1950 0,-1453.0435" style="fill:none;stroke:red;stroke-width:164.03721619;stroke-linejoin:round;marker-end:url(#marker6261)"/><rect id="rect317" width="601" height="1451" x="9350" y="12500" class="BoundingBox" style="fill:none;stroke:none"/><path id="path319" d="m 9650,12550 0,1505.217" style="fill:none;stroke:red;stroke-width:166.95626831;stroke-linejoin:round;marker-end:url(#marker5693)"/></svg>