<svg xmlns="http://www.w3.org/2000/svg" xmlns:svg="http://www.w3.org/2000/svg" id="svg2" width="898.402" height="477.287" preserveAspectRatio="xMidYMid" version="1.2" viewBox="0 0 23770.221 12628.221" xml:space="preserve" style="fill-rule:evenodd;stroke-width:28.22200012;stroke-linejoin:round"><metadata id="metadata519"/><rect id="rect197" width="18403" height="9603" x="5355.111" y="13.111" class="BoundingBox" style="fill:none;stroke:none"/><path id="path199" d="m 14556.111,9614.111 -9200,0 0,-9600 18400,0 0,9600 -9200,0 z" style="fill:#fff;stroke:none"/><path id="path201" d="m 14556.111,9614.111 -9200,0 0,-9600 18400,0 0,9600 -9200,0 z" style="fill:none;stroke:#000"/><rect id="rect206" width="4544" height="2403" x="13.111" y="4013.111" class="BoundingBox" style="fill:none;stroke:none"/><path id="path208" d="m 2285.111,6414.111 -2271,0 0,-2400 4541,0 0,2400 -2270,0 z" style="fill:#fff;stroke:none"/><path id="path210" d="m 2285.111,6414.111 -2271,0 0,-2400 4541,0 0,2400 -2270,0 z" style="fill:none;stroke:#000"/><text id="text212" x="-2443.889" y="-4585.889" class="TextShape"><tspan id="tspan214" class="TextParagraph" font-size="635" font-weight="400" style="font-weight:400;font-size:635px;font-family:'Liberation Sans',sans-serif"><tspan id="tspan216" x="1281.111" y="5435.111" class="TextPosition"><tspan id="tspan218" style="fill:#000;stroke:none">Antena</tspan></tspan></tspan></text><rect id="rect223" width="4544" height="2403" x="6213.111" y="1813.111" class="BoundingBox" style="fill:none;stroke:none"/><path id="path225" d="m 8485.111,4214.111 -2271,0 0,-2400 4541,0 0,2400 -2270,0 z" style="fill:#fff;stroke:none"/><path id="path227" d="m 8485.111,4214.111 -2271,0 0,-2400 4541,0 0,2400 -2270,0 z" style="fill:none;stroke:#000"/><text id="text229" x="-2443.889" y="-4585.889" class="TextShape"><tspan id="tspan231" class="TextParagraph" font-size="635" font-weight="400" style="font-weight:400;font-size:635px;font-family:'Liberation Sans',sans-serif"><tspan id="tspan233" x="7217.111" y="3235.111" class="TextPosition"><tspan id="tspan235" style="fill:#000;stroke:none">Frontend</tspan></tspan></tspan></text><rect id="rect240" width="4544" height="2403" x="12113.111" y="1813.111" class="BoundingBox" style="fill:none;stroke:none"/><path id="path242" d="m 14385.111,4214.111 -2271,0 0,-2400 4541,0 0,2400 -2270,0 z" style="fill:#fff;stroke:none"/><path id="path244" d="m 14385.111,4214.111 -2271,0 0,-2400 4541,0 0,2400 -2270,0 z" style="fill:none;stroke:#000"/><text id="text246" x="-2443.889" y="-4585.889" class="TextShape"><tspan id="tspan248" class="TextParagraph" font-size="635" font-weight="400" style="font-weight:400;font-size:635px;font-family:'Liberation Sans',sans-serif"><tspan id="tspan250" x="13944.111" y="3235.111" class="TextPosition"><tspan id="tspan252" style="fill:#000;stroke:none">CA</tspan></tspan></tspan></text><rect id="rect257" width="4544" height="2403" x="18113.111" y="1813.111" class="BoundingBox" style="fill:none;stroke:none"/><path id="path259" d="m 20385.111,4214.111 -2271,0 0,-2400 4541,0 0,2400 -2270,0 z" style="fill:#fff;stroke:none"/><path id="path261" d="m 20385.111,4214.111 -2271,0 0,-2400 4541,0 0,2400 -2270,0 z" style="fill:none;stroke:#000"/><text id="text263" x="-2443.889" y="-4585.889" class="TextShape"><tspan id="tspan265" class="TextParagraph" font-size="635" font-weight="400" style="font-weight:400;font-size:635px;font-family:'Liberation Sans',sans-serif"><tspan id="tspan267" x="19384.111" y="3235.111" class="TextPosition"><tspan id="tspan269" style="fill:#000;stroke:none">Demux</tspan></tspan></tspan></text><rect id="rect274" width="4544" height="2403" x="6113.111" y="5813.111" class="BoundingBox" style="fill:none;stroke:none"/><path id="path276" d="m 8385.111,8214.111 -2271,0 0,-2400 4541,0 0,2400 -2270,0 z" style="fill:#fff;stroke:none"/><path id="path278" d="m 8385.111,8214.111 -2271,0 0,-2400 4541,0 0,2400 -2270,0 z" style="fill:none;stroke:#000"/><text id="text280" x="-2443.889" y="-4585.889" class="TextShape"><tspan id="tspan282" class="TextParagraph" font-size="635" font-weight="400" style="font-weight:400;font-size:635px;font-family:'Liberation Sans',sans-serif"><tspan id="tspan284" x="7733.111" y="7235.111" class="TextPosition"><tspan id="tspan286" style="fill:#000;stroke:none">SEC</tspan></tspan></tspan></text><rect id="rect291" width="4544" height="2403" x="12213.111" y="5813.111" class="BoundingBox" style="fill:none;stroke:none"/><path id="path293" d="m 14485.111,8214.111 -2271,0 0,-2400 4541,0 0,2400 -2270,0 z" style="fill:#fff;stroke:none"/><path id="path295" d="m 14485.111,8214.111 -2271,0 0,-2400 4541,0 0,2400 -2270,0 z" style="fill:none;stroke:#000"/><text id="text297" x="-2443.889" y="-4585.889" class="TextShape"><tspan id="tspan299" class="TextParagraph" font-size="635" font-weight="400" style="font-weight:400;font-size:635px;font-family:'Liberation Sans',sans-serif"><tspan id="tspan301" x="13676.111" y="7235.111" class="TextPosition"><tspan id="tspan303" style="fill:#000;stroke:none">Audio</tspan></tspan></tspan></text><rect id="rect308" width="4544" height="2403" x="18113.111" y="5813.111" class="BoundingBox" style="fill:none;stroke:none"/><path id="path310" d="m 20385.111,8214.111 -2271,0 0,-2400 4541,0 0,2400 -2270,0 z" style="fill:#fff;stroke:none"/><path id="path312" d="m 20385.111,8214.111 -2271,0 0,-2400 4541,0 0,2400 -2270,0 z" style="fill:none;stroke:#000"/><text id="text314" x="-2443.889" y="-4585.889" class="TextShape"><tspan id="tspan316" class="TextParagraph" font-size="635" font-weight="400" style="font-weight:400;font-size:635px;font-family:'Liberation Sans',sans-serif"><tspan id="tspan318" x="19583.111" y="7235.111" class="TextPosition"><tspan id="tspan320" style="fill:#000;stroke:none">Video</tspan></tspan></tspan></text><rect id="rect325" width="4544" height="2403" x="15213.111" y="10213.111" class="BoundingBox" style="fill:none;stroke:none"/><path id="path327" d="m 17485.111,12614.111 -2271,0 0,-2400 4541,0 0,2400 -2270,0 z" style="fill:#fff;stroke:none"/><path id="path329" d="m 17485.111,12614.111 -2271,0 0,-2400 4541,0 0,2400 -2270,0 z" style="fill:none;stroke:#000"/><text id="text331" x="-2443.889" y="-4585.889" class="TextShape"><tspan id="tspan333" class="TextParagraph" font-size="635" font-weight="400" style="font-weight:400;font-size:635px;font-family:'Liberation Sans',sans-serif"><tspan id="tspan335" x="17076.111" y="11635.111" class="TextPosition"><tspan id="tspan337" style="fill:#000;stroke:none">TV</tspan></tspan></tspan></text><rect id="rect342" width="1661" height="2202" x="4555.111" y="3014.111" class="BoundingBox" style="fill:none;stroke:none"/><path id="path344" d="m 4556.111,5214.111 1400,-1857" style="fill:none;stroke:#000"/><path id="path346" d="m 6215.111,3014.111 -391,269 240,181 151,-450 z" style="fill:#000;stroke:none"/><rect id="rect351" width="1561" height="1802" x="4555.111" y="5213.111" class="BoundingBox" style="fill:none;stroke:none"/><path id="path353" d="m 4556.111,5214.111 1277,1475" style="fill:none;stroke:#000"/><path id="path355" d="m 6115.111,7014.111 -181,-438 -227,196 408,242 z" style="fill:#000;stroke:none"/><rect id="rect360" width="1361" height="301" x="10755.111" y="2864.111" class="BoundingBox" style="fill:none;stroke:none"/><path id="path362" d="m 10756.111,3014.111 929,0" style="fill:none;stroke:#000"/><path id="path364" d="m 12115.111,3014.111 -450,-150 0,300 450,-150 z" style="fill:#000;stroke:none"/><rect id="rect369" width="1461" height="301" x="16655.111" y="2864.111" class="BoundingBox" style="fill:none;stroke:none"/><path id="path371" d="m 16656.111,3014.111 1029,0" style="fill:none;stroke:#000"/><path id="path373" d="m 18115.111,3014.111 -450,-150 0,300 450,-150 z" style="fill:#000;stroke:none"/><rect id="rect378" width="301" height="1602" x="20235.111" y="4213.111" class="BoundingBox" style="fill:none;stroke:none"/><path id="path380" d="m 20385.111,4214.111 0,1170" style="fill:none;stroke:#000"/><path id="path382" d="m 20385.111,5814.111 150,-450 -300,0 150,450 z" style="fill:#000;stroke:none"/><rect id="rect387" width="2902" height="2002" x="17485.111" y="8213.111" class="BoundingBox" style="fill:none;stroke:none"/><path id="path389" d="m 20385.111,8214.111 -2546,1756" style="fill:none;stroke:#000"/><path id="path391" d="m 17485.111,10214.111 456,-132 -171,-247 -285,379 z" style="fill:#000;stroke:none"/><rect id="rect396" width="3002" height="2002" x="14484.111" y="8213.111" class="BoundingBox" style="fill:none;stroke:none"/><path id="path398" d="m 14485.111,8214.111 2642,1761" style="fill:none;stroke:#000"/><path id="path400" d="m 17485.111,10214.111 -291,-374 -167,249 458,125 z" style="fill:#000;stroke:none"/><rect id="rect405" width="5902" height="1629" x="14485.111" y="4213.111" class="BoundingBox" style="fill:none;stroke:none"/><path id="path407" d="m 20385.111,4214.111 -51,14" style="fill:none;stroke:#000"/><path id="path409" d="m 20283.111,4242.111 -52,14" style="fill:none;stroke:#000"/><path id="path411" d="m 20180.111,4270.111 -51,13" style="fill:none;stroke:#000"/><path id="path413" d="m 20078.111,4297.111 -52,14" style="fill:none;stroke:#000"/><path id="path415" d="m 19975.111,4325.111 -51,14" style="fill:none;stroke:#000"/><path id="path417" d="m 19873.111,4353.111 -52,14" style="fill:none;stroke:#000"/><path id="path419" d="m 19770.111,4381.111 -51,14" style="fill:none;stroke:#000"/><path id="path421" d="m 19668.111,4409.111 -52,13" style="fill:none;stroke:#000"/><path id="path423" d="m 19565.111,4436.111 -51,14" style="fill:none;stroke:#000"/><path id="path425" d="m 19463.111,4464.111 -52,14" style="fill:none;stroke:#000"/><path id="path427" d="m 19360.111,4492.111 -51,14" style="fill:none;stroke:#000"/><path id="path429" d="m 19258.111,4520.111 -52,14" style="fill:none;stroke:#000"/><path id="path431" d="m 19155.111,4547.111 -51,14" style="fill:none;stroke:#000"/><path id="path433" d="m 19053.111,4575.111 -52,14" style="fill:none;stroke:#000"/><path id="path435" d="m 18950.111,4603.111 -51,14" style="fill:none;stroke:#000"/><path id="path437" d="m 18848.111,4631.111 -51,14" style="fill:none;stroke:#000"/><path id="path439" d="m 18745.111,4659.111 -51,14" style="fill:none;stroke:#000"/><path id="path441" d="m 18643.111,4686.111 -51,14" style="fill:none;stroke:#000"/><path id="path443" d="m 18540.111,4714.111 -51,14" style="fill:none;stroke:#000"/><path id="path445" d="m 18438.111,4742.111 -51,14" style="fill:none;stroke:#000"/><path id="path447" d="m 18335.111,4770.111 -51,14" style="fill:none;stroke:#000"/><path id="path449" d="m 18233.111,4798.111 -51,14" style="fill:none;stroke:#000"/><path id="path451" d="m 18130.111,4825.111 -51,14" style="fill:none;stroke:#000"/><path id="path453" d="m 18028.111,4853.111 -51,14" style="fill:none;stroke:#000"/><path id="path455" d="m 17925.111,4881.111 -51,14" style="fill:none;stroke:#000"/><path id="path457" d="m 17823.111,4909.111 -51,14" style="fill:none;stroke:#000"/><path id="path459" d="m 17720.111,4937.111 -51,13" style="fill:none;stroke:#000"/><path id="path461" d="m 17618.111,4964.111 -51,14" style="fill:none;stroke:#000"/><path id="path463" d="m 17516.111,4992.111 -52,14" style="fill:none;stroke:#000"/><path id="path465" d="m 17413.111,5020.111 -51,14" style="fill:none;stroke:#000"/><path id="path467" d="m 17311.111,5048.111 -52,14" style="fill:none;stroke:#000"/><path id="path469" d="m 17208.111,5076.111 -51,13" style="fill:none;stroke:#000"/><path id="path471" d="m 17106.111,5103.111 -52,14" style="fill:none;stroke:#000"/><path id="path473" d="m 17003.111,5131.111 -51,14" style="fill:none;stroke:#000"/><path id="path475" d="m 16901.111,5159.111 -52,14" style="fill:none;stroke:#000"/><path id="path477" d="m 16798.111,5187.111 -51,14" style="fill:none;stroke:#000"/><path id="path479" d="m 16696.111,5214.111 -52,14" style="fill:none;stroke:#000"/><path id="path481" d="m 16593.111,5242.111 -51,14" style="fill:none;stroke:#000"/><path id="path483" d="m 16491.111,5270.111 -52,14" style="fill:none;stroke:#000"/><path id="path485" d="m 16388.111,5298.111 -51,14" style="fill:none;stroke:#000"/><path id="path487" d="m 16286.111,5326.111 -52,14" style="fill:none;stroke:#000"/><path id="path489" d="m 16183.111,5353.111 -51,14" style="fill:none;stroke:#000"/><path id="path491" d="m 16081.111,5381.111 -51,14" style="fill:none;stroke:#000"/><path id="path493" d="m 15978.111,5409.111 -51,14" style="fill:none;stroke:#000"/><path id="path495" d="m 15876.111,5437.111 -51,14" style="fill:none;stroke:#000"/><path id="path497" d="m 15773.111,5465.111 -51,14" style="fill:none;stroke:#000"/><path id="path499" d="m 15671.111,5492.111 -51,14" style="fill:none;stroke:#000"/><path id="path501" d="m 15568.111,5520.111 -51,14" style="fill:none;stroke:#000"/><path id="path503" d="m 15466.111,5548.111 -51,14" style="fill:none;stroke:#000"/><path id="path505" d="m 15363.111,5576.111 -51,14" style="fill:none;stroke:#000"/><path id="path507" d="m 15261.111,5604.111 -51,13" style="fill:none;stroke:#000"/><path id="path509" d="m 15158.111,5631.111 -51,14" style="fill:none;stroke:#000"/><path id="path511" d="m 15056.111,5659.111 -51,14" style="fill:none;stroke:#000"/><path id="path513" d="m 14953.111,5687.111 -51,14" style="fill:none;stroke:#000"/><path id="path515" d="m 14485.111,5814.111 474,27 -79,-290 -395,263 z" style="fill:#000;stroke:none"/></svg>